<svg version="1.1" id="Layer_1" xmlns="http://www.w3.org/2000/svg" xmlns:xlink="http://www.w3.org/1999/xlink" x="0px" y="0px"
	 width="100%" viewBox="0 0 1200 1200" enable-background="new 0 0 1200 1200" xml:space="preserve">
<path fill="#4960A6" opacity="1.000000" stroke="none" 
	d="
M633.000000,1201.000000 
	C422.000000,1201.000000 211.500000,1201.000000 1.000000,1201.000000 
	C1.000000,801.000000 1.000000,401.000000 1.000000,1.000000 
	C401.000000,1.000000 801.000000,1.000000 1201.000000,1.000000 
	C1201.000000,401.000000 1201.000000,801.000000 1201.000000,1201.000000 
	C1011.833313,1201.000000 822.666687,1201.000000 633.000000,1201.000000 
M178.134918,553.493530 
	C174.480698,588.292786 175.163483,623.038696 179.841934,657.683716 
	C192.187134,749.102844 230.139832,828.604492 294.029816,894.858765 
	C371.850311,975.558899 467.370941,1018.936768 579.571777,1025.296265 
	C626.645813,1027.964478 672.845764,1022.630249 717.920776,1009.572021 
	C806.390564,983.942383 879.816467,934.934448 936.004089,861.965637 
	C1012.177856,763.041321 1040.399048,651.119019 1018.974182,527.994812 
	C998.341614,409.423950 936.893127,315.909912 837.667664,248.322144 
	C754.833313,191.899185 662.409912,169.301239 562.538086,177.886108 
	C511.261017,182.293823 462.300842,195.549057 416.048004,218.270508 
	C324.063141,263.457581 256.580750,332.731323 213.439606,425.601624 
	C194.704956,465.931915 183.412094,508.448822 178.134918,553.493530 
z"/>
<path fill="#F2AD86" opacity="1.000000" stroke="none" 
	d="
M178.183655,553.046326 
	C183.412094,508.448822 194.704956,465.931915 213.439606,425.601624 
	C256.580750,332.731323 324.063141,263.457581 416.048004,218.270508 
	C462.300842,195.549057 511.261017,182.293823 562.538086,177.886108 
	C662.409912,169.301239 754.833313,191.899185 837.667664,248.322144 
	C936.893127,315.909912 998.341614,409.423950 1018.974182,527.994812 
	C1040.399048,651.119019 1012.177856,763.041321 936.004089,861.965637 
	C879.816467,934.934448 806.390564,983.942383 717.920776,1009.572021 
	C672.845764,1022.630249 626.645813,1027.964478 579.571777,1025.296265 
	C467.370941,1018.936768 371.850311,975.558899 294.029816,894.858765 
	C230.139832,828.604492 192.187134,749.102844 179.841934,657.683716 
	C175.163483,623.038696 174.480698,588.292786 178.183655,553.046326 
M962.602173,396.983582 
	C940.026184,357.244629 911.952759,321.865112 877.737000,291.563049 
	C810.355957,231.889221 732.044250,196.755569 642.272827,187.717453 
	C592.531067,182.709534 543.405457,186.347015 495.113770,199.155411 
	C426.122375,217.453979 365.262634,250.897125 314.128387,300.730835 
	C227.417206,385.236603 183.381973,487.950104 185.636215,609.616699 
	C187.005371,683.512390 206.739380,752.294312 245.146591,815.429749 
	C294.827087,897.096741 364.464966,955.406250 453.715759,989.566345 
	C531.255554,1019.244080 611.081848,1024.884766 691.902588,1006.228027 
	C800.677979,981.118042 886.601379,921.577454 948.106445,828.470581 
	C1006.570618,739.966858 1026.942505,642.483459 1011.187683,537.554932 
	C1003.740967,487.959625 987.438965,441.376099 962.602173,396.983582 
z"/>
<path fill="#4960A6" opacity="1.000000" stroke="none" 
	d="
M962.774292,397.310394 
	C987.438965,441.376099 1003.740967,487.959625 1011.187683,537.554932 
	C1026.942505,642.483459 1006.570618,739.966858 948.106445,828.470581 
	C886.601379,921.577454 800.677979,981.118042 691.902588,1006.228027 
	C611.081848,1024.884766 531.255554,1019.244080 453.715759,989.566345 
	C364.464966,955.406250 294.827087,897.096741 245.146591,815.429749 
	C206.739380,752.294312 187.005371,683.512390 185.636215,609.616699 
	C183.381973,487.950104 227.417206,385.236603 314.128387,300.730835 
	C365.262634,250.897125 426.122375,217.453979 495.113770,199.155411 
	C543.405457,186.347015 592.531067,182.709534 642.272827,187.717453 
	C732.044250,196.755569 810.355957,231.889221 877.737000,291.563049 
	C911.952759,321.865112 940.026184,357.244629 962.774292,397.310394 
M670.499634,593.498108 
	C682.831848,593.492493 695.168274,593.694214 707.495361,593.439758 
	C736.575012,592.839478 756.987549,572.126953 757.020386,543.104553 
	C757.100037,472.777039 757.111877,402.449219 756.934082,332.122101 
	C756.919128,326.220062 756.019531,320.087891 754.252441,314.464355 
	C747.800110,293.930695 729.081360,281.195312 705.971497,281.177551 
	C645.143127,281.130798 584.314819,281.159912 523.486450,281.160431 
	C513.653931,281.160522 503.817810,280.997650 493.989624,281.206726 
	C467.222809,281.776001 445.232849,302.232910 445.137573,327.620697 
	C444.864899,400.280212 445.001495,472.941376 445.071472,545.601807 
	C445.080475,554.965881 447.740936,563.724365 453.052643,571.492615 
	C463.608429,586.930237 478.485413,593.603943 497.013824,593.554993 
	C554.508728,593.403137 612.004272,593.498596 670.499634,593.498108 
M414.993042,778.581238 
	C424.434265,754.973145 433.875458,731.365051 443.623413,706.989868 
	C439.411896,706.989868 436.094513,707.270264 432.843201,706.926208 
	C427.555817,706.366638 425.033142,708.855103 423.315308,713.600098 
	C418.383820,727.222351 413.087921,740.712402 407.968597,754.267029 
	C405.483093,760.847961 403.072052,767.456909 400.504486,774.384766 
	C400.047119,773.561157 399.753662,773.158630 399.584137,772.709412 
	C392.058868,752.768311 384.636749,732.787231 376.903931,712.927063 
	C376.008057,710.626282 373.644623,707.734924 371.525665,707.314575 
	C367.137207,706.443970 362.455444,707.052002 357.345459,707.052002 
	C358.171936,709.385498 358.666351,710.953064 359.275177,712.474915 
	C369.604889,738.295898 380.074249,764.062195 390.172150,789.973389 
	C391.955750,794.550049 394.025635,796.432861 399.110474,796.133179 
	C410.154877,795.482361 407.018921,797.718384 411.360931,787.639160 
	C412.546448,784.887268 413.605896,782.081055 414.993042,778.581238 
M567.326111,785.134583 
	C575.651062,796.128357 587.088623,798.637451 599.825134,796.362000 
	C612.001404,794.186584 619.916382,786.548584 622.336365,774.538757 
	C623.615234,768.192017 623.653870,761.212158 622.495850,754.837280 
	C620.071777,741.493713 608.956238,732.554565 595.846985,732.012207 
	C579.199829,731.323425 567.504517,738.248047 563.313538,751.880493 
	C559.844971,763.163269 560.516052,774.224121 567.326111,785.134583 
M815.920593,784.906677 
	C805.505432,782.439026 800.413269,775.882446 801.594177,766.007874 
	C803.355103,766.007874 805.165466,766.007996 806.975891,766.007812 
	C817.295654,766.006775 827.616028,765.947937 837.934937,766.041077 
	C840.901489,766.067871 842.565308,765.185059 842.984131,761.977661 
	C844.303894,751.871338 838.982422,740.397583 830.271973,735.526428 
	C816.285950,727.704956 793.170349,731.723206 786.906860,752.565796 
	C784.063049,762.028870 784.682373,771.386841 788.804199,780.338074 
	C797.790527,799.853577 828.565369,803.466125 841.839417,786.656921 
	C837.283936,778.259094 836.768738,778.280640 828.210327,782.079468 
	C824.662231,783.654419 820.587158,784.042175 815.920593,784.906677 
M685.831604,740.739868 
	C682.899902,736.114624 678.627747,733.322083 673.353821,732.324097 
	C664.251831,730.601746 656.375244,733.548340 649.565002,739.833252 
	C646.874756,732.400146 644.468506,731.455383 635.175415,733.787231 
	C635.175415,754.307251 635.175415,774.864380 635.175415,795.640930 
	C640.226562,795.640930 644.935364,795.640930 650.164429,795.640930 
	C650.164429,782.158508 650.154175,769.037659 650.168945,755.916809 
	C650.175964,749.665039 656.234497,744.257080 663.438232,744.026123 
	C669.893250,743.819153 673.942810,747.903870 674.056763,755.184937 
	C674.207764,764.840820 674.101196,774.500671 674.104431,784.158813 
	C674.105713,787.936646 674.104614,791.714478 674.104614,795.578552 
	C679.648010,795.578552 684.506592,795.578552 689.455322,795.578552 
	C689.455322,780.693420 689.660889,766.232727 689.306885,751.785767 
	C689.221313,748.290405 687.287842,744.840332 685.831604,740.739868 
M755.390015,773.911987 
	C762.237488,764.903931 768.953979,755.791809 775.990173,746.933655 
	C779.305176,742.760254 780.123962,738.425537 778.824585,733.336609 
	C763.200134,733.336609 747.668457,733.336609 731.910034,733.336609 
	C731.910034,737.282715 731.910034,740.885071 731.910034,745.238525 
	C741.662964,745.238525 751.127991,745.238525 761.512634,745.238525 
	C751.443481,758.487732 742.162842,770.856628 732.688477,783.075378 
	C729.634277,787.014160 729.326233,791.090454 730.416809,795.745728 
	C746.433472,795.745728 762.175232,795.745728 778.190735,795.745728 
	C778.190735,791.774170 778.190735,788.064880 778.190735,783.994751 
	C772.966248,783.994751 768.153503,783.994751 763.340759,783.994751 
	C758.506531,783.994751 753.672363,783.994751 747.869629,783.994751 
	C750.794678,780.064087 752.873352,777.270752 755.390015,773.911987 
M518.239136,789.711365 
	C527.557129,777.713562 524.336609,765.613953 510.311066,760.180786 
	C506.444183,758.682800 502.421753,757.583313 498.568573,756.054321 
	C495.406128,754.799438 492.270996,753.129883 492.948730,748.904053 
	C493.634003,744.631042 497.169250,743.623108 500.705994,743.135437 
	C502.454742,742.894226 504.379944,743.186768 506.101959,743.673828 
	C508.644440,744.392944 511.112427,745.418030 513.548645,746.461182 
	C518.053894,748.390259 519.288574,744.816956 521.153687,742.140137 
	C523.314209,739.039185 520.670776,738.009827 518.841064,736.790833 
	C511.506378,731.904236 503.344208,730.881165 494.929749,732.565979 
	C484.723663,734.609436 478.647583,741.004883 478.006195,749.610535 
	C477.318207,758.841553 481.616730,764.515137 492.397858,768.462158 
	C495.981110,769.773987 499.682037,770.777405 503.222626,772.189087 
	C506.257294,773.399048 508.969910,775.214111 508.591248,779.095093 
	C508.207367,783.028992 505.352661,785.512146 501.949738,785.345093 
	C497.172913,785.110535 492.233398,784.048767 487.795166,782.266113 
	C483.664551,780.606934 480.840485,780.504333 478.669922,784.686157 
	C477.920929,786.129211 477.144287,787.557922 476.432220,788.895569 
	C487.015625,799.338928 506.434845,799.854858 518.239136,789.711365 
M453.797089,732.987183 
	C449.811707,732.512695 450.192596,735.279846 450.193726,737.805786 
	C450.201599,755.590698 450.189850,773.375549 450.212830,791.160461 
	C450.214691,792.608887 450.428986,794.057129 450.563843,795.746460 
	C455.634125,795.746460 460.367798,795.746460 465.442261,795.746460 
	C465.442261,774.816101 465.442261,754.157532 465.442261,732.983093 
	C461.632935,732.983093 458.179443,732.983093 453.797089,732.987183 
M534.610962,762.499756 
	C534.610962,773.542603 534.610962,784.585388 534.610962,795.561584 
	C540.278992,795.561584 544.984985,795.561584 549.684631,795.561584 
	C549.684631,774.590759 549.684631,754.063477 549.684631,733.347900 
	C544.616699,733.347900 539.903503,733.347900 534.610901,733.347900 
	C534.610901,742.959229 534.610901,752.229492 534.610962,762.499756 
M703.844727,740.586853 
	C703.844727,758.976013 703.844727,777.365112 703.844727,795.642944 
	C709.456055,795.642944 714.045105,795.642944 718.826721,795.642944 
	C718.826721,774.719543 718.826721,754.157410 718.826721,733.361572 
	C713.785767,733.361572 709.076355,733.361572 703.844910,733.361572 
	C703.844910,735.685547 703.844910,737.648804 703.844727,740.586853 
M453.747314,705.867432 
	C449.583496,708.008911 447.604279,711.473877 448.307190,716.054016 
	C448.943695,720.201477 451.662048,722.940857 455.737762,723.822388 
	C459.988770,724.741821 463.642273,723.327087 466.166962,719.694519 
	C468.488037,716.354797 468.510376,712.792114 466.227112,709.453613 
	C463.350372,705.247437 459.282806,704.115173 453.747314,705.867432 
M532.795288,712.277649 
	C531.911255,716.440308 532.927368,720.385315 536.708435,722.094238 
	C539.548462,723.377808 543.501038,723.765625 546.449951,722.872986 
	C550.797607,721.556946 552.755127,717.598633 551.931824,712.929749 
	C551.161499,708.560791 548.285889,705.907837 543.982483,705.092712 
	C539.140503,704.175659 535.737122,706.297119 532.795288,712.277649 
M715.343018,705.755371 
	C710.801758,704.033813 706.775879,704.882080 703.750793,708.666565 
	C701.140015,711.932739 700.867615,715.698792 703.053955,719.346130 
	C705.224609,722.967224 708.608215,724.487183 712.763123,723.938354 
	C716.927734,723.388245 719.837341,720.981140 720.914001,716.951965 
	C722.189697,712.177734 720.212036,708.569153 715.343018,705.755371 
z"/>
<path fill="#F4AE85" opacity="1.000000" stroke="none" 
	d="
M669.999634,593.498047 
	C612.004272,593.498596 554.508728,593.403137 497.013824,593.554993 
	C478.485413,593.603943 463.608429,586.930237 453.052643,571.492615 
	C447.740936,563.724365 445.080475,554.965881 445.071472,545.601807 
	C445.001495,472.941376 444.864899,400.280212 445.137573,327.620697 
	C445.232849,302.232910 467.222809,281.776001 493.989624,281.206726 
	C503.817810,280.997650 513.653931,281.160522 523.486450,281.160431 
	C584.314819,281.159912 645.143127,281.130798 705.971497,281.177551 
	C729.081360,281.195312 747.800110,293.930695 754.252441,314.464355 
	C756.019531,320.087891 756.919128,326.220062 756.934082,332.122101 
	C757.111877,402.449219 757.100037,472.777039 757.020386,543.104553 
	C756.987549,572.126953 736.575012,592.839478 707.495361,593.439758 
	C695.168274,593.694214 682.831848,593.492493 669.999634,593.498047 
M737.461975,329.211945 
	C735.302246,310.772491 724.369934,300.876404 705.888733,300.854980 
	C664.392456,300.806824 622.896118,300.835999 581.399780,300.837006 
	C552.402344,300.837738 523.404053,300.710144 494.407806,300.897797 
	C477.107513,301.009766 464.657257,313.100311 464.631653,329.889709 
	C464.522888,401.216553 464.510162,472.543793 464.638428,543.870544 
	C464.670898,561.912781 476.905457,573.944641 494.911682,573.963989 
	C565.572021,574.039917 636.232605,574.034912 706.892944,573.968445 
	C725.094116,573.951355 737.518250,561.844238 737.551819,543.588379 
	C737.682739,472.428802 737.574280,401.268799 737.461975,329.211945 
z"/>
<path fill="#F2AD86" opacity="1.000000" stroke="none" 
	d="
M414.858124,778.940491 
	C413.605896,782.081055 412.546448,784.887268 411.360931,787.639160 
	C407.018921,797.718384 410.154877,795.482361 399.110474,796.133179 
	C394.025635,796.432861 391.955750,794.550049 390.172150,789.973389 
	C380.074249,764.062195 369.604889,738.295898 359.275177,712.474915 
	C358.666351,710.953064 358.171936,709.385498 357.345459,707.052002 
	C362.455444,707.052002 367.137207,706.443970 371.525665,707.314575 
	C373.644623,707.734924 376.008057,710.626282 376.903931,712.927063 
	C384.636749,732.787231 392.058868,752.768311 399.584137,772.709412 
	C399.753662,773.158630 400.047119,773.561157 400.504486,774.384766 
	C403.072052,767.456909 405.483093,760.847961 407.968597,754.267029 
	C413.087921,740.712402 418.383820,727.222351 423.315308,713.600098 
	C425.033142,708.855103 427.555817,706.366638 432.843201,706.926208 
	C436.094513,707.270264 439.411896,706.989868 443.623413,706.989868 
	C433.875458,731.365051 424.434265,754.973145 414.858124,778.940491 
z"/>
<path fill="#F2AD86" opacity="1.000000" stroke="none" 
	d="
M567.128906,784.831543 
	C560.516052,774.224121 559.844971,763.163269 563.313538,751.880493 
	C567.504517,738.248047 579.199829,731.323425 595.846985,732.012207 
	C608.956238,732.554565 620.071777,741.493713 622.495850,754.837280 
	C623.653870,761.212158 623.615234,768.192017 622.336365,774.538757 
	C619.916382,786.548584 612.001404,794.186584 599.825134,796.362000 
	C587.088623,798.637451 575.651062,796.128357 567.128906,784.831543 
M594.150879,744.070923 
	C585.934814,744.137573 581.448853,746.668274 579.167114,753.095520 
	C576.530518,760.521973 576.499451,768.128235 579.024841,775.589905 
	C581.154175,781.881348 586.101379,785.074341 592.788269,784.982483 
	C599.505615,784.890137 604.677490,781.703491 606.051147,775.133057 
	C607.248047,769.408752 607.427917,763.297729 606.962280,757.444702 
	C606.399963,750.376099 602.487244,745.412048 594.150879,744.070923 
z"/>
<path fill="#F3AD85" opacity="1.000000" stroke="none" 
	d="
M816.336182,784.938232 
	C820.587158,784.042175 824.662231,783.654419 828.210327,782.079468 
	C836.768738,778.280640 837.283936,778.259094 841.839417,786.656921 
	C828.565369,803.466125 797.790527,799.853577 788.804199,780.338074 
	C784.682373,771.386841 784.063049,762.028870 786.906860,752.565796 
	C793.170349,731.723206 816.285950,727.704956 830.271973,735.526428 
	C838.982422,740.397583 844.303894,751.871338 842.984131,761.977661 
	C842.565308,765.185059 840.901489,766.067871 837.934937,766.041077 
	C827.616028,765.947937 817.295654,766.006775 806.975891,766.007812 
	C805.165466,766.007996 803.355103,766.007874 801.594177,766.007874 
	C800.413269,775.882446 805.505432,782.439026 816.336182,784.938232 
M825.146423,756.996338 
	C826.366760,756.841309 827.587036,756.686340 828.770874,756.536011 
	C828.262695,747.744324 823.485352,742.959778 815.657837,743.014709 
	C807.553101,743.071594 801.916382,748.619019 801.848267,756.997803 
	C809.303467,756.997803 816.761719,756.997803 825.146423,756.996338 
z"/>
<path fill="#F3AD86" opacity="1.000000" stroke="none" 
	d="
M686.017822,741.054688 
	C687.287842,744.840332 689.221313,748.290405 689.306885,751.785767 
	C689.660889,766.232727 689.455322,780.693420 689.455322,795.578552 
	C684.506592,795.578552 679.648010,795.578552 674.104614,795.578552 
	C674.104614,791.714478 674.105713,787.936646 674.104431,784.158813 
	C674.101196,774.500671 674.207764,764.840820 674.056763,755.184937 
	C673.942810,747.903870 669.893250,743.819153 663.438232,744.026123 
	C656.234497,744.257080 650.175964,749.665039 650.168945,755.916809 
	C650.154175,769.037659 650.164429,782.158508 650.164429,795.640930 
	C644.935364,795.640930 640.226562,795.640930 635.175415,795.640930 
	C635.175415,774.864380 635.175415,754.307251 635.175415,733.787231 
	C644.468506,731.455383 646.874756,732.400146 649.565002,739.833252 
	C656.375244,733.548340 664.251831,730.601746 673.353821,732.324097 
	C678.627747,733.322083 682.899902,736.114624 686.017822,741.054688 
z"/>
<path fill="#F4AE85" opacity="1.000000" stroke="none" 
	d="
M755.171021,774.194702 
	C752.873352,777.270752 750.794678,780.064087 747.869629,783.994751 
	C753.672363,783.994751 758.506531,783.994751 763.340759,783.994751 
	C768.153503,783.994751 772.966248,783.994751 778.190735,783.994751 
	C778.190735,788.064880 778.190735,791.774170 778.190735,795.745728 
	C762.175232,795.745728 746.433472,795.745728 730.416809,795.745728 
	C729.326233,791.090454 729.634277,787.014160 732.688477,783.075378 
	C742.162842,770.856628 751.443481,758.487732 761.512634,745.238525 
	C751.127991,745.238525 741.662964,745.238525 731.910034,745.238525 
	C731.910034,740.885071 731.910034,737.282715 731.910034,733.336609 
	C747.668457,733.336609 763.200134,733.336609 778.824585,733.336609 
	C780.123962,738.425537 779.305176,742.760254 775.990173,746.933655 
	C768.953979,755.791809 762.237488,764.903931 755.171021,774.194702 
z"/>
<path fill="#F2AD86" opacity="1.000000" stroke="none" 
	d="
M517.998352,789.981323 
	C506.434845,799.854858 487.015625,799.338928 476.432220,788.895569 
	C477.144287,787.557922 477.920929,786.129211 478.669922,784.686157 
	C480.840485,780.504333 483.664551,780.606934 487.795166,782.266113 
	C492.233398,784.048767 497.172913,785.110535 501.949738,785.345093 
	C505.352661,785.512146 508.207367,783.028992 508.591248,779.095093 
	C508.969910,775.214111 506.257294,773.399048 503.222626,772.189087 
	C499.682037,770.777405 495.981110,769.773987 492.397858,768.462158 
	C481.616730,764.515137 477.318207,758.841553 478.006195,749.610535 
	C478.647583,741.004883 484.723663,734.609436 494.929749,732.565979 
	C503.344208,730.881165 511.506378,731.904236 518.841064,736.790833 
	C520.670776,738.009827 523.314209,739.039185 521.153687,742.140137 
	C519.288574,744.816956 518.053894,748.390259 513.548645,746.461182 
	C511.112427,745.418030 508.644440,744.392944 506.101959,743.673828 
	C504.379944,743.186768 502.454742,742.894226 500.705994,743.135437 
	C497.169250,743.623108 493.634003,744.631042 492.948730,748.904053 
	C492.270996,753.129883 495.406128,754.799438 498.568573,756.054321 
	C502.421753,757.583313 506.444183,758.682800 510.311066,760.180786 
	C524.336609,765.613953 527.557129,777.713562 517.998352,789.981323 
z"/>
<path fill="#EFAC86" opacity="1.000000" stroke="none" 
	d="
M454.261536,732.985107 
	C458.179443,732.983093 461.632935,732.983093 465.442261,732.983093 
	C465.442261,754.157532 465.442261,774.816101 465.442261,795.746460 
	C460.367798,795.746460 455.634125,795.746460 450.563843,795.746460 
	C450.428986,794.057129 450.214691,792.608887 450.212830,791.160461 
	C450.189850,773.375549 450.201599,755.590698 450.193726,737.805786 
	C450.192596,735.279846 449.811707,732.512695 454.261536,732.985107 
z"/>
<path fill="#F5AE85" opacity="1.000000" stroke="none" 
	d="
M534.610962,761.999756 
	C534.610901,752.229492 534.610901,742.959229 534.610901,733.347900 
	C539.903503,733.347900 544.616699,733.347900 549.684631,733.347900 
	C549.684631,754.063477 549.684631,774.590759 549.684631,795.561584 
	C544.984985,795.561584 540.278992,795.561584 534.610962,795.561584 
	C534.610962,784.585388 534.610962,773.542603 534.610962,761.999756 
z"/>
<path fill="#F5AE85" opacity="1.000000" stroke="none" 
	d="
M703.844849,740.099487 
	C703.844910,737.648804 703.844910,735.685547 703.844910,733.361572 
	C709.076355,733.361572 713.785767,733.361572 718.826721,733.361572 
	C718.826721,754.157410 718.826721,774.719543 718.826721,795.642944 
	C714.045105,795.642944 709.456055,795.642944 703.844727,795.642944 
	C703.844727,777.365112 703.844727,758.976013 703.844849,740.099487 
z"/>
<path fill="#F2AD86" opacity="1.000000" stroke="none" 
	d="
M454.098053,705.686035 
	C459.282806,704.115173 463.350372,705.247437 466.227112,709.453613 
	C468.510376,712.792114 468.488037,716.354797 466.166962,719.694519 
	C463.642273,723.327087 459.988770,724.741821 455.737762,723.822388 
	C451.662048,722.940857 448.943695,720.201477 448.307190,716.054016 
	C447.604279,711.473877 449.583496,708.008911 454.098053,705.686035 
z"/>
<path fill="#F2AD86" opacity="1.000000" stroke="none" 
	d="
M532.899414,711.916260 
	C535.737122,706.297119 539.140503,704.175659 543.982483,705.092712 
	C548.285889,705.907837 551.161499,708.560791 551.931824,712.929749 
	C552.755127,717.598633 550.797607,721.556946 546.449951,722.872986 
	C543.501038,723.765625 539.548462,723.377808 536.708435,722.094238 
	C532.927368,720.385315 531.911255,716.440308 532.899414,711.916260 
z"/>
<path fill="#F2AD86" opacity="1.000000" stroke="none" 
	d="
M715.698364,705.915771 
	C720.212036,708.569153 722.189697,712.177734 720.914001,716.951965 
	C719.837341,720.981140 716.927734,723.388245 712.763123,723.938354 
	C708.608215,724.487183 705.224609,722.967224 703.053955,719.346130 
	C700.867615,715.698792 701.140015,711.932739 703.750793,708.666565 
	C706.775879,704.882080 710.801758,704.033813 715.698364,705.915771 
z"/>
<path fill="#4A61A6" opacity="1.000000" stroke="none" 
	d="
M737.508423,329.660461 
	C737.574280,401.268799 737.682739,472.428802 737.551819,543.588379 
	C737.518250,561.844238 725.094116,573.951355 706.892944,573.968445 
	C636.232605,574.034912 565.572021,574.039917 494.911682,573.963989 
	C476.905457,573.944641 464.670898,561.912781 464.638428,543.870544 
	C464.510162,472.543793 464.522888,401.216553 464.631653,329.889709 
	C464.657257,313.100311 477.107513,301.009766 494.407806,300.897797 
	C523.404053,300.710144 552.402344,300.837738 581.399780,300.837006 
	C622.896118,300.835999 664.392456,300.806824 705.888733,300.854980 
	C724.369934,300.876404 735.302246,310.772491 737.508423,329.660461 
M539.136230,544.684570 
	C549.273743,544.332886 552.161133,541.403870 552.162048,531.379883 
	C552.167847,468.886505 552.168701,406.393127 552.160034,343.899750 
	C552.158508,332.952667 549.225891,330.079407 538.150940,330.075195 
	C527.485413,330.071167 516.819580,330.027008 506.154449,330.092865 
	C497.470245,330.146515 493.863556,333.618774 493.858521,342.152588 
	C493.821136,405.479218 493.821960,468.805817 493.856384,532.132446 
	C493.861389,541.329468 497.326355,544.637817 506.711975,544.677368 
	C517.210693,544.721558 527.709717,544.686768 539.136230,544.684570 
M708.298584,450.500183 
	C708.297729,414.679199 708.316895,378.858154 708.281921,343.037201 
	C708.273254,334.134735 705.084839,330.247711 697.342834,330.133423 
	C685.183105,329.953857 673.016235,329.941101 660.857178,330.143250 
	C653.453308,330.266357 649.952271,334.061005 649.947021,341.479340 
	C649.915771,385.797363 649.912354,430.115448 649.951721,474.433411 
	C649.958862,482.465576 653.516785,485.997498 661.549622,486.048401 
	C673.211792,486.122345 684.875061,486.119324 696.537292,486.049194 
	C704.629761,486.000549 708.066528,482.658478 708.246277,474.491394 
	C708.414856,466.830994 708.292786,459.164185 708.298584,450.500183 
M571.832703,378.499939 
	C571.838074,391.159668 571.737976,403.820618 571.889893,416.478607 
	C571.975769,423.639893 575.570129,427.475616 582.572327,427.604248 
	C594.728210,427.827515 606.894592,427.850677 619.049561,427.606628 
	C626.765747,427.451721 630.139648,423.677399 630.151306,415.935059 
	C630.188477,391.281921 630.189758,366.628632 630.150513,341.975494 
	C630.137207,333.633636 626.656128,330.147522 618.281799,330.093567 
	C606.955139,330.020569 595.627380,330.027161 584.300537,330.089722 
	C575.414307,330.138794 571.893005,333.657196 571.848450,342.519073 
	C571.789795,354.179108 571.833130,365.839600 571.832703,378.499939 
z"/>
<path fill="#4B61A6" opacity="1.000000" stroke="none" 
	d="
M594.558716,744.121399 
	C602.487244,745.412048 606.399963,750.376099 606.962280,757.444702 
	C607.427917,763.297729 607.248047,769.408752 606.051147,775.133057 
	C604.677490,781.703491 599.505615,784.890137 592.788269,784.982483 
	C586.101379,785.074341 581.154175,781.881348 579.024841,775.589905 
	C576.499451,768.128235 576.530518,760.521973 579.167114,753.095520 
	C581.448853,746.668274 585.934814,744.137573 594.558716,744.121399 
z"/>
<path fill="#4B61A6" opacity="1.000000" stroke="none" 
	d="
M824.683228,756.997070 
	C816.761719,756.997803 809.303467,756.997803 801.848267,756.997803 
	C801.916382,748.619019 807.553101,743.071594 815.657837,743.014709 
	C823.485352,742.959778 828.262695,747.744324 828.770874,756.536011 
	C827.587036,756.686340 826.366760,756.841309 824.683228,756.997070 
z"/>
<path fill="#F5AF85" opacity="1.000000" stroke="none" 
	d="
M538.672424,544.685425 
	C527.709717,544.686768 517.210693,544.721558 506.711975,544.677368 
	C497.326355,544.637817 493.861389,541.329468 493.856384,532.132446 
	C493.821960,468.805817 493.821136,405.479218 493.858521,342.152588 
	C493.863556,333.618774 497.470245,330.146515 506.154449,330.092865 
	C516.819580,330.027008 527.485413,330.071167 538.150940,330.075195 
	C549.225891,330.079407 552.158508,332.952667 552.160034,343.899750 
	C552.168701,406.393127 552.167847,468.886505 552.162048,531.379883 
	C552.161133,541.403870 549.273743,544.332886 538.672424,544.685425 
M532.847107,371.500244 
	C532.847107,364.403748 532.847107,357.307251 532.847107,350.156677 
	C525.898926,350.156677 519.704163,350.156677 513.619690,350.156677 
	C513.619690,408.672699 513.619690,466.701752 513.619690,524.702148 
	C520.169495,524.702148 526.245789,524.702148 532.847107,524.702148 
	C532.847107,473.713959 532.847107,423.107056 532.847107,371.500244 
z"/>
<path fill="#F5AF85" opacity="1.000000" stroke="none" 
	d="
M708.298584,451.000183 
	C708.292786,459.164185 708.414856,466.830994 708.246277,474.491394 
	C708.066528,482.658478 704.629761,486.000549 696.537292,486.049194 
	C684.875061,486.119324 673.211792,486.122345 661.549622,486.048401 
	C653.516785,485.997498 649.958862,482.465576 649.951721,474.433411 
	C649.912354,430.115448 649.915771,385.797363 649.947021,341.479340 
	C649.952271,334.061005 653.453308,330.266357 660.857178,330.143250 
	C673.016235,329.941101 685.183105,329.953857 697.342834,330.133423 
	C705.084839,330.247711 708.273254,334.134735 708.281921,343.037201 
	C708.316895,378.858154 708.297729,414.679199 708.298584,451.000183 
M686.051697,466.687836 
	C690.332886,466.565186 688.879639,463.259094 688.884460,461.137421 
	C688.964294,425.814148 688.941345,390.490631 688.941345,355.167175 
	C688.941345,353.538544 688.941345,351.909943 688.941345,350.086975 
	C682.178772,350.086975 675.951233,350.086975 669.282349,350.086975 
	C669.282349,352.317749 669.282288,354.130463 669.282288,355.943176 
	C669.282104,370.272491 669.281738,384.601837 669.281982,398.931152 
	C669.282288,419.758667 669.379395,440.586975 669.202271,461.412964 
	C669.166748,465.585663 670.506287,467.108521 674.635254,466.773987 
	C678.111694,466.492340 681.628662,466.711365 686.051697,466.687836 
z"/>
<path fill="#F5AE85" opacity="1.000000" stroke="none" 
	d="
M571.832703,377.999939 
	C571.833130,365.839600 571.789795,354.179108 571.848450,342.519073 
	C571.893005,333.657196 575.414307,330.138794 584.300537,330.089722 
	C595.627380,330.027161 606.955139,330.020569 618.281799,330.093567 
	C626.656128,330.147522 630.137207,333.633636 630.150513,341.975494 
	C630.189758,366.628632 630.188477,391.281921 630.151306,415.935059 
	C630.139648,423.677399 626.765747,427.451721 619.049561,427.606628 
	C606.894592,427.850677 594.728210,427.827515 582.572327,427.604248 
	C575.570129,427.475616 571.975769,423.639893 571.889893,416.478607 
	C571.737976,403.820618 571.838074,391.159668 571.832703,377.999939 
M591.155579,357.603882 
	C591.155579,374.313660 591.155579,391.023468 591.155579,407.718933 
	C598.144287,407.718933 604.214905,407.718933 610.845215,407.718933 
	C610.845215,405.582611 610.845215,403.789551 610.845215,401.996521 
	C610.844971,388.692688 610.844604,375.388824 610.844482,362.084991 
	C610.844360,349.659058 610.844482,349.659058 598.237671,349.678650 
	C591.189392,349.689606 591.189392,349.689606 591.155579,357.603882 
z"/>
<path fill="#4D62A5" opacity="1.000000" stroke="none" 
	d="
M532.847107,372.000183 
	C532.847107,423.107056 532.847107,473.713959 532.847107,524.702148 
	C526.245789,524.702148 520.169495,524.702148 513.619690,524.702148 
	C513.619690,466.701752 513.619690,408.672699 513.619690,350.156677 
	C519.704163,350.156677 525.898926,350.156677 532.847107,350.156677 
	C532.847107,357.307251 532.847107,364.403748 532.847107,372.000183 
z"/>
<path fill="#4E62A5" opacity="1.000000" stroke="none" 
	d="
M685.589722,466.698303 
	C681.628662,466.711365 678.111694,466.492340 674.635254,466.773987 
	C670.506287,467.108521 669.166748,465.585663 669.202271,461.412964 
	C669.379395,440.586975 669.282288,419.758667 669.281982,398.931152 
	C669.281738,384.601837 669.282104,370.272491 669.282288,355.943176 
	C669.282288,354.130463 669.282349,352.317749 669.282349,350.086975 
	C675.951233,350.086975 682.178772,350.086975 688.941345,350.086975 
	C688.941345,351.909943 688.941345,353.538544 688.941345,355.167175 
	C688.941345,390.490631 688.964294,425.814148 688.884460,461.137421 
	C688.879639,463.259094 690.332886,466.565186 685.589722,466.698303 
z"/>
<path fill="#4D62A5" opacity="1.000000" stroke="none" 
	d="
M591.155640,357.119049 
	C591.189392,349.689606 591.189392,349.689606 598.237671,349.678650 
	C610.844482,349.659058 610.844360,349.659058 610.844482,362.084991 
	C610.844604,375.388824 610.844971,388.692688 610.845215,401.996521 
	C610.845215,403.789551 610.845215,405.582611 610.845215,407.718933 
	C604.214905,407.718933 598.144287,407.718933 591.155579,407.718933 
	C591.155579,391.023468 591.155579,374.313660 591.155640,357.119049 
z"/>
</svg>